<?xml version="1.0" standalone="no"?>
<!DOCTYPE svg PUBLIC "-//W3C//DTD SVG 20010904//EN"
 "http://www.w3.org/TR/2001/REC-SVG-20010904/DTD/svg10.dtd">
<svg version="1.0" xmlns="http://www.w3.org/2000/svg"
 width="512.000000pt" height="512.000000pt" viewBox="0 0 512.000000 512.000000"
 preserveAspectRatio="xMidYMid meet">
<metadata>
Created by potrace 1.14, written by Peter Selinger 2001-2017
</metadata>
<g transform="translate(0.000000,512.000000) scale(0.100000,-0.100000)"
fill="#000000" stroke="none">
<path d="M931 5109 c-120 -11 -223 -39 -340 -94 -219 -104 -382 -267 -486
-486 -57 -122 -82 -217 -95 -359 -14 -158 -13 -3075 1 -3233 32 -375 245 -683
580 -842 52 -24 130 -54 174 -67 l80 -23 1725 0 1725 0 88 28 c346 108 596
358 704 704 l28 88 0 1725 0 1725 -23 80 c-84 290 -272 519 -534 651 -122 61
-234 92 -385 104 -152 12 -3102 11 -3242 -1z"/>
</g>
</svg>
